<?xml version="1.0" encoding="iso-8859-1"?>
<!-- Generator: Adobe Illustrator 19.0.0, SVG Export Plug-In . SVG Version: 6.00 Build 0)  -->
<svg version="1.1" id="Layer_1" xmlns="http://www.w3.org/2000/svg" xmlns:xlink="http://www.w3.org/1999/xlink" x="0px" y="0px"
	 viewBox="0 0 511.999 511.999" style="enable-background:new 0 0 511.999 511.999;" xml:space="preserve">
<path style="fill:#FFD553;" d="M453.003,195.2c-46.675,19.373-93.974,35.337-145.162,33.511
	c-51.509-1.835-102.349-19.825-142.479-52.376c-32.723-26.544-56.264-62.805-74.828-100.204c-3.823-7.698-7.723-17.37-13.145-25.293
	c-7.311-10.688-55.355-2.366-56.663,12.034c-2.798,30.841,4.929,75.867,10.338,96.885c9.252,35.957,27.052,69.636,51.09,97.89
	c13.409,15.782,29.325,30.55,47.222,43.273c17.907,12.695,37.71,23.45,58.589,31.452c59.322,22.73,127.07,23.46,186.115-0.556
	c24.815-10.122,48.28-24.253,68.216-42.213c10.176-9.167,19.423-19.371,27.345-30.545c2.478-3.508,19.584-26.654,17.02-30.722
	c5.261-13.119-1.107-28.024-14.221-33.289C465.97,192.452,458.997,192.713,453.003,195.2z"/>
<path style="opacity:0.2;fill:#2F3953;enable-background:new    ;" d="M286.286,290.028c-32.391,0-63.575-7.131-93.095-21.328
	c-54.847-26.379-90.72-70.333-111.156-102.562C58.158,128.484,43.178,87.116,42.941,58.183c-0.037-4.567,3.634-8.299,8.201-8.338
	c0.023,0,0.046,0,0.069,0c4.535,0,8.23,3.657,8.267,8.201c0.211,25.622,14.548,64.575,36.525,99.236
	c19.279,30.404,53.034,71.83,104.356,96.513c37.502,18.035,77.967,23.716,120.27,16.882c49.658-8.019,101.906-33.357,155.292-75.306
	c3.591-2.82,8.791-2.197,11.612,1.394c2.822,3.591,2.198,8.79-1.394,11.612c-55.615,43.702-110.415,70.155-162.872,78.628
	C310.789,289.023,298.449,290.028,286.286,290.028z"/>
<path style="fill:#866539;" d="M77.387,50.838c-7.311-10.688-13.076-19.334-33.764-13.414
	c-20.691,5.918-21.591,11.048-22.899,25.448c-0.373,4.092-0.552,8.437-0.585,12.938l62.495-16.057
	C81.028,56.674,79.308,53.642,77.387,50.838z"/>
<path style="fill:#FDBA55;" d="M452.168,202.246c-40.888,29.705-83.168,56.237-133.381,66.378
	c-50.516,10.204-104.15,4.542-150.751-17.775c-38.003-18.197-69.337-47.986-96.098-80.034c-5.511-6.6-11.555-15.098-18.672-21.542
	c-9.6-8.692-54.387,10.581-52.305,24.892c4.458,30.642,22.455,72.636,32.606,91.817c17.366,32.818,42.519,61.425,72.473,83.312
	c16.711,12.228,35.627,22.883,55.996,31.09c20.37,8.181,42.134,14.031,64.303,16.953c62.982,8.297,129.037-6.76,180.872-43.858
	c21.78-15.617,41.307-34.825,56.52-56.933c7.759-11.284,14.379-23.36,19.481-36.074c1.598-3.986,12.842-30.475,9.4-33.838
	c2.069-13.983-7.594-26.994-21.578-29.064C464.138,196.556,457.417,198.432,452.168,202.246z"/>
<path style="opacity:0.2;fill:#2F3953;enable-background:new    ;" d="M261.91,340.702c-14.661,0-29.381-1.528-44.123-4.591
	c-59.588-12.381-104.999-46.392-132.6-72.745c-32.25-30.791-56.76-67.328-63.965-95.352c-1.137-4.424,1.526-8.931,5.95-10.068
	c4.421-1.139,8.931,1.526,10.068,5.95c6.381,24.817,29.683,59.165,59.368,87.506c26.04,24.862,68.785,56.93,124.544,68.515
	c40.741,8.467,81.382,4.226,120.793-12.604c46.261-19.753,90.86-56.937,132.561-110.516c2.805-3.604,8.002-4.252,11.605-1.448
	c3.603,2.805,4.252,8.002,1.448,11.605c-43.441,55.818-90.248,94.702-139.118,115.568
	C320.089,334.63,291.123,340.702,261.91,340.702z"/>
<path style="fill:#866539;" d="M53.266,149.273c-9.6-8.692-17.215-15.76-35.958-5.188c-18.744,10.574-18.428,15.768-16.347,30.08
	c0.593,4.066,1.428,8.332,2.443,12.721l57.038-30.162C58.168,154.102,55.787,151.555,53.266,149.273z"/>
<path style="fill:#FFD553;" d="M453.861,212.245c-28.777,41.546-59.922,80.555-103.964,106.713
	c-44.314,26.318-96.802,38.69-148.165,33.022c-41.88-4.625-81.294-22.391-117.139-43.799c-7.381-4.406-15.894-10.43-24.741-14.166
	c-11.93-5.028-47.838,27.957-41.146,40.779c14.331,27.449,45.188,61.141,61.106,75.892c27.234,25.235,60.424,43.93,95.926,54.695
	c19.812,6.017,41.188,9.826,63.122,10.845c21.931,0.99,44.402-0.676,66.292-5.244c62.188-12.973,119.564-49.005,156.231-101.144
	c15.396-21.936,27.484-46.512,34.536-72.404c3.599-13.216,5.86-26.801,6.473-40.487c0.19-4.29,2.056-33.011-2.302-35.044
	c-2.673-13.884-16.088-22.972-29.971-20.303C463.277,202.92,457.559,206.909,453.861,212.245z"/>
<circle style="fill:#3F4963;" cx="178.059" cy="386.827" r="15.622"/>
<path style="fill:#FF6376;" d="M194.767,436.461h-33.423c-4.567,0-8.27-3.703-8.27-8.27c0-4.568,3.703-8.27,8.27-8.27h33.423
	c4.567,0,8.27,3.701,8.27,8.27S199.334,436.461,194.767,436.461z"/>
<circle style="fill:#3F4963;" cx="331.74" cy="386.827" r="15.622"/>
<path style="fill:#FF6376;" d="M348.451,436.461h-33.423c-4.568,0-8.27-3.703-8.27-8.27c0-4.568,3.701-8.27,8.27-8.27h33.423
	c4.567,0,8.27,3.701,8.27,8.27S353.018,436.461,348.451,436.461z"/>
<g>
	<path style="fill:#3F4963;" d="M239.368,423.172c-13.123,0-23.801-10.677-23.801-23.799c0-4.568,3.703-8.27,8.27-8.27
		s8.27,3.701,8.27,8.27c0,4.004,3.258,7.26,7.262,7.26c4.002,0,7.26-3.256,7.26-7.26c0-4.568,3.703-8.27,8.27-8.27
		c4.568,0,8.27,3.701,8.27,8.27C263.167,412.496,252.491,423.172,239.368,423.172z"/>
	<path style="fill:#3F4963;" d="M270.427,423.172c-13.122,0-23.799-10.677-23.799-23.799c0-4.568,3.703-8.27,8.27-8.27
		c4.568,0,8.27,3.701,8.27,8.27c0,4.004,3.256,7.26,7.26,7.26c4.004,0,7.26-3.256,7.26-7.26c0-4.568,3.701-8.27,8.27-8.27
		c4.567,0,8.27,3.701,8.27,8.27C294.225,412.496,283.549,423.172,270.427,423.172z"/>
</g>
<g>
	<path style="fill:#866539;" d="M59.855,294.017c-11.93-5.028-21.454-9.185-35.653,6.984c-14.2,16.173-12.185,20.973-5.493,33.795
		c1.901,3.64,4.101,7.393,6.509,11.198l43.873-47.315C66.075,296.958,62.988,295.339,59.855,294.017z"/>
	<path style="fill:#866539;" d="M464.638,248.557c1.242,0.577,2.541,1.057,3.902,1.432c13.424,3.732,27.329-4.128,31.063-17.549
		l11.468-41.277c3.732-13.43-4.128-27.341-17.553-31.063c-13.428-3.73-27.336,4.133-31.06,17.553l-11.471,41.277
		C447.635,230.996,453.644,243.453,464.638,248.557z"/>
</g>
<g>
</g>
<g>
</g>
<g>
</g>
<g>
</g>
<g>
</g>
<g>
</g>
<g>
</g>
<g>
</g>
<g>
</g>
<g>
</g>
<g>
</g>
<g>
</g>
<g>
</g>
<g>
</g>
<g>
</g>
</svg>
