<?xml version="1.0" standalone="no"?>
<!DOCTYPE svg PUBLIC "-//W3C//DTD SVG 20010904//EN"
 "http://www.w3.org/TR/2001/REC-SVG-20010904/DTD/svg10.dtd">
<svg version="1.0" xmlns="http://www.w3.org/2000/svg" viewBox="260 0 200 260"
 preserveAspectRatio="xMidYMid meet">

<g transform="translate(10,200) scale(0.1,-0.1)"
fill="#000000" stroke="none">
<path d="M0 2560 l0 -2560 2560 0 2560 0 0 2560 0 2560 -2560 0 -2560 0 0
-2560z m3790 1660 l0 -460 -1230 0 -1230 0 0 460 0 460 1230 0 1230 0 0 -460z
m-2620 -5 c0 -396 -2 -455 -15 -455 -16 0 -171 134 -205 177 -19 24 -20 39
-20 297 l0 271 87 82 c73 69 94 83 121 83 l32 0 0 -455z m2968 272 l52 -56 0
-238 0 -238 -100 -97 c-60 -59 -107 -98 -120 -98 -20 0 -20 4 -20 451 l0 451
68 -60 c37 -33 91 -85 120 -115z m-2367 -1416 c6 -15 21 -33 35 -40 18 -8 294
-11 1004 -11 l980 0 0 -460 0 -460 -1230 0 -1230 0 0 460 0 460 105 0 c117 0
150 10 164 51 10 28 11 29 86 29 75 0 76 -1 86 -29z m-601 -512 l0 -460 -22 7
c-13 3 -57 38 -98 77 -135 126 -120 78 -120 389 l0 270 78 80 c78 82 100 96
140 97 l22 1 0 -461z m2909 330 l111 -106 0 -236 c0 -129 -2 -242 -5 -250 -9
-22 -188 -183 -213 -191 l-22 -7 0 451 c0 259 4 450 9 448 5 -1 59 -51 120
-109z m-2909 -1984 c0 -451 0 -455 -20 -455 -13 0 -60 39 -120 97 l-100 98 0
267 c0 146 3 273 6 282 3 8 44 49 90 91 65 58 92 75 114 75 l30 0 0 -455z
m2620 323 c1 -144 5 -159 55 -178 33 -13 56 -7 81 21 16 18 20 42 24 150 l5
128 118 -112 117 -112 0 -240 0 -240 -99 -97 c-62 -62 -107 -98 -120 -98 -21
0 -21 3 -21 179 0 99 -4 191 -10 205 -15 41 -53 60 -93 47 -52 -18 -57 -40
-57 -251 l0 -190 -1230 0 -1230 0 0 460 0 460 1230 0 1230 0 0 -132z"/>
<path d="M1744 4584 c-12 -3 -30 -14 -40 -26 -18 -19 -19 -43 -19 -345 l0
-325 24 -19 c20 -17 40 -19 172 -19 163 0 200 9 252 58 73 69 92 180 46 263
l-25 44 19 33 c66 113 23 252 -97 314 -35 18 -61 22 -176 24 -74 1 -145 0
-156 -2z m286 -174 c29 -29 26 -74 -6 -99 -22 -17 -41 -21 -105 -21 l-79 0 0
70 0 70 85 0 c72 0 88 -3 105 -20z m0 -290 c29 -29 26 -74 -6 -99 -22 -17 -41
-21 -105 -21 l-79 0 0 70 0 70 85 0 c72 0 88 -3 105 -20z"/>
<path d="M2500 4571 c-76 -25 -136 -78 -169 -151 -19 -41 -21 -65 -20 -280 0
-169 3 -239 12 -251 20 -26 55 -40 82 -33 43 11 55 40 55 136 l0 88 99 0 99 0
4 -90 c3 -98 16 -122 70 -135 22 -6 33 -1 59 24 l31 31 -4 238 c-3 201 -6 243
-21 277 -23 51 -71 101 -121 127 -43 22 -136 32 -176 19z m134 -182 c22 -25
26 -41 26 -90 l0 -59 -100 0 -100 0 0 34 c0 97 36 146 105 146 36 0 48 -5 69
-31z"/>
<path d="M2955 4555 l-25 -24 0 -310 c0 -170 3 -317 6 -326 9 -23 61 -47 87
-39 50 15 57 31 57 127 l0 90 68 -5 c102 -7 124 -28 136 -128 3 -32 12 -51 31
-67 34 -29 57 -29 92 1 25 22 28 30 27 88 -1 59 -22 123 -55 168 -9 13 -6 24
14 53 60 88 57 207 -7 290 -66 87 -120 107 -289 107 -112 0 -119 -1 -142 -25z
m298 -165 c29 -32 35 -72 16 -113 -16 -35 -47 -50 -121 -55 l-68 -5 0 100 c0
55 3 103 8 107 4 5 36 6 72 2 56 -5 69 -10 93 -36z"/>
<path d="M1724 2918 c-12 -5 -27 -21 -33 -34 -15 -33 -15 -599 -1 -641 16 -45
45 -53 198 -53 124 0 142 3 189 24 117 55 162 204 95 318 -15 26 -15 30 0 56
67 114 22 263 -95 318 -47 22 -64 24 -192 23 -77 0 -150 -5 -161 -11z m310
-170 c9 -12 16 -32 16 -43 0 -11 -7 -31 -16 -43 -14 -20 -23 -22 -105 -22
l-89 0 0 65 0 65 89 0 c82 0 91 -2 105 -22z m0 -290 c9 -12 16 -32 16 -43 0
-11 -7 -31 -16 -43 -14 -20 -23 -22 -105 -22 l-89 0 0 65 0 65 89 0 c82 0 91
-2 105 -22z"/>
<path d="M2452 2894 c-29 -14 -65 -42 -82 -62 -54 -65 -60 -102 -60 -352 0
-215 1 -229 21 -254 23 -30 72 -35 105 -12 16 12 20 30 24 113 l5 98 98 3 97
3 0 -81 c0 -122 36 -169 109 -144 48 17 52 39 49 294 -3 220 -4 238 -25 276
-70 132 -214 181 -341 118z m146 -135 c45 -15 62 -48 62 -119 l0 -60 -100 0
-100 0 0 38 c0 65 19 111 53 132 37 23 43 24 85 9z"/>
<path d="M2952 2897 c-22 -23 -22 -29 -22 -334 0 -299 1 -311 21 -337 26 -33
79 -36 109 -6 17 17 20 33 20 105 l0 85 60 0 c101 0 134 -29 143 -125 8 -78
72 -111 128 -66 21 17 24 27 23 89 0 58 -5 78 -32 126 l-32 56 25 40 c66 104
51 233 -37 320 -58 59 -97 70 -249 70 -129 0 -137 -1 -157 -23z m266 -138 c66
-23 84 -109 33 -160 -27 -27 -35 -29 -100 -29 l-71 0 0 100 0 100 54 0 c29 0
67 -5 84 -11z"/>
<path d="M1709 1251 l-24 -19 0 -326 0 -325 23 -23 c22 -22 30 -23 175 -23
136 1 156 3 193 23 120 62 163 201 97 314 l-19 33 25 44 c46 83 27 194 -46
263 -52 49 -89 58 -252 58 -132 0 -152 -2 -172 -19z m315 -152 c32 -25 35 -70
6 -99 -17 -17 -33 -20 -105 -20 l-85 0 0 70 0 70 79 0 c64 0 83 -4 105 -21z
m0 -290 c32 -25 35 -70 6 -99 -17 -17 -33 -20 -105 -20 l-85 0 0 70 0 70 79 0
c64 0 83 -4 105 -21z"/>
<path d="M2482 1251 c-60 -21 -114 -67 -145 -126 -21 -37 -22 -56 -25 -287
l-3 -248 25 -25 c31 -30 64 -32 100 -4 25 19 26 25 26 115 l0 94 100 0 100 0
0 -74 c0 -40 5 -87 11 -104 21 -61 111 -65 138 -6 18 39 15 438 -4 500 -40
136 -190 213 -323 165z m149 -170 c26 -27 29 -36 29 -96 l0 -66 -97 3 -98 3 1
64 c1 59 4 67 33 93 43 39 92 38 132 -1z"/>
<path d="M2975 1258 c-44 -25 -44 -29 -45 -356 l0 -313 25 -24 c29 -30 64 -32
98 -5 24 19 26 28 29 108 l3 87 70 -2 c64 -1 72 -4 97 -32 19 -21 28 -42 28
-65 0 -84 48 -132 109 -106 68 28 66 153 -5 260 -15 25 -15 28 9 63 98 144 15
350 -154 386 -66 14 -239 14 -264 -1z m276 -177 c21 -22 29 -39 29 -66 0 -72
-46 -105 -146 -105 l-54 0 0 100 0 100 71 0 c65 0 73 -2 100 -29z"/>
</g>
</svg>
