<?xml version="1.0" encoding="iso-8859-1"?>
<!-- Generator: Adobe Illustrator 19.0.0, SVG Export Plug-In . SVG Version: 6.00 Build 0)  -->
<svg version="1.1" id="Layer_1" xmlns="http://www.w3.org/2000/svg" xmlns:xlink="http://www.w3.org/1999/xlink" x="0px" y="0px"
	 viewBox="0 0 512 512" style="enable-background:new 0 0 512 512;" xml:space="preserve">
<path style="fill:#A5EB78;" d="M344.845,71.026c1.93,0.057,3.884,0.514,5.268,1.897c1.387,1.387,1.808,3.313,1.897,5.271
	c3.081,67.44-46.04,107.422-104.772,104.538c-0.209-0.01-0.417,0.032-0.623,0.032c-1.736,0-3.412-0.687-4.648-1.926
	c-1.387-1.387-1.47-3.357-1.897-5.271C228.291,122.789,272.157,68.87,344.845,71.026z"/>
<path style="fill:#8CD76E;" d="M247.238,182.732c-0.208-0.029-0.417,0.032-0.623,0.032c-1.736,0-3.412-0.687-4.648-1.926
	L349.971,72.834c0.041,0.04,0.101,0.049,0.142,0.09c1.387,1.387,1.865,3.311,1.897,5.271
	C353.262,154.317,298.659,189.958,247.238,182.732z"/>
<path style="fill:#A5EB78;" d="M128.469,23.035c-2.529,0.09-5.091,0.673-6.904,2.486c-1.817,1.817-2.464,4.339-2.486,6.908
	c-0.909,104.524,58.264,134.682,137.312,137.005c0.274,0.008,0.547,0.042,0.816,0.042c4.255,0,8.231-3.147,8.684-8.286
	C272.842,78.237,220.751,19.75,128.469,23.035z"/>
<path style="fill:#8CD76E;" d="M256.391,169.435c0.274-0.008,0.547,0.042,0.816,0.042c2.276,0,4.472-0.9,6.092-2.524L121.718,25.372
	c-1.919,1.827-2.634,4.417-2.64,7.058C118.855,140.609,184.425,171.452,256.391,169.435z"/>
<ellipse style="fill:#A07DD2;" cx="256" cy="457" rx="40" ry="48"/>
<path style="fill:#9169C8;" d="M240,449.333c0-16.843,7.244-31.635,18.182-40.201C257.455,409.085,256.737,409,256,409
	c-22.091,0-40,21.49-40,48s17.909,48,40,48c8.056,0,15.54-2.883,21.818-7.8C256.748,495.833,240,474.958,240,449.333z"/>
<ellipse style="fill:#A07DD2;" cx="296" cy="384" rx="40" ry="48"/>
<path style="fill:#9169C8;" d="M280,376.333c0-16.843,7.244-31.635,18.182-40.201C297.455,336.085,296.737,336,296,336
	c-22.091,0-40,21.49-40,48s17.909,48,40,48c8.056,0,15.54-2.883,21.818-7.799C296.748,422.833,280,401.958,280,376.333z"/>
<ellipse style="fill:#A07DD2;" cx="216" cy="384" rx="40" ry="48"/>
<path style="fill:#9169C8;" d="M200,376.333c0-16.843,7.244-31.635,18.182-40.201C217.455,336.085,216.737,336,216,336
	c-22.091,0-40,21.49-40,48s17.909,48,40,48c8.056,0,15.54-2.883,21.818-7.799C216.748,422.833,200,401.958,200,376.333z"/>
<ellipse style="fill:#A07DD2;" cx="256" cy="313" rx="40" ry="48"/>
<path style="fill:#9169C8;" d="M240,305.333c0-16.843,7.244-31.635,18.182-40.201C257.455,265.085,256.737,265,256,265
	c-22.091,0-40,21.49-40,48s17.909,48,40,48c8.056,0,15.54-2.883,21.818-7.799C256.748,351.833,240,330.958,240,305.333z"/>
<ellipse style="fill:#A07DD2;" cx="336" cy="313" rx="40" ry="48"/>
<path style="fill:#9169C8;" d="M320,305.333c0-16.843,7.244-31.635,18.182-40.201C337.455,265.085,336.737,265,336,265
	c-22.091,0-40,21.49-40,48s17.909,48,40,48c8.056,0,15.54-2.883,21.818-7.799C336.748,351.833,320,330.958,320,305.333z"/>
<ellipse style="fill:#A07DD2;" cx="176" cy="313" rx="40" ry="48"/>
<path style="fill:#9169C8;" d="M160,305.333c0-16.843,7.244-31.635,18.182-40.201C177.455,265.085,176.737,265,176,265
	c-22.091,0-40,21.49-40,48s17.909,48,40,48c8.056,0,15.54-2.883,21.818-7.799C176.748,351.833,160,330.958,160,305.333z"/>
<ellipse style="fill:#A07DD2;" cx="296" cy="240" rx="40" ry="48"/>
<path style="fill:#9169C8;" d="M280,232.333c0-16.843,7.244-31.635,18.182-40.201C297.455,192.085,296.737,192,296,192
	c-22.091,0-40,21.49-40,48s17.909,48,40,48c8.056,0,15.54-2.883,21.818-7.799C296.748,278.833,280,257.958,280,232.333z"/>
<ellipse style="fill:#A07DD2;" cx="376" cy="240" rx="40" ry="48"/>
<path style="fill:#9169C8;" d="M360,232.333c0-16.843,7.244-31.635,18.182-40.201C377.455,192.085,376.737,192,376,192
	c-22.091,0-40,21.49-40,48s17.909,48,40,48c8.056,0,15.54-2.883,21.818-7.799C376.748,278.833,360,257.958,360,232.333z"/>
<ellipse style="fill:#A07DD2;" cx="136" cy="240" rx="40" ry="48"/>
<path style="fill:#9169C8;" d="M120,232.333c0-16.843,7.244-31.635,18.182-40.201C137.455,192.085,136.737,192,136,192
	c-22.091,0-40,21.49-40,48s17.909,48,40,48c8.056,0,15.54-2.883,21.818-7.799C136.748,278.833,120,257.958,120,232.333z"/>
<ellipse style="fill:#A07DD2;" cx="216" cy="240" rx="40" ry="48"/>
<path style="fill:#9169C8;" d="M200,232.333c0-16.843,7.244-31.635,18.182-40.201C217.455,192.085,216.737,192,216,192
	c-22.091,0-40,21.49-40,48s17.909,48,40,48c8.056,0,15.54-2.883,21.818-7.799C216.748,278.833,200,257.958,200,232.333z"/>
<ellipse style="fill:#A07DD2;" cx="256" cy="169" rx="40" ry="48"/>
<path style="fill:#9169C8;" d="M240,161.333c0-16.843,7.244-31.635,18.182-40.201C257.455,121.085,256.737,121,256,121
	c-22.091,0-40,21.49-40,48s17.909,48,40,48c8.056,0,15.54-2.883,21.818-7.799C256.748,207.833,240,186.958,240,161.333z"/>
<ellipse style="fill:#A07DD2;" cx="336" cy="169" rx="40" ry="48"/>
<path style="fill:#9169C8;" d="M320,161.333c0-16.843,7.244-31.635,18.182-40.201C337.455,121.085,336.737,121,336,121
	c-22.091,0-40,21.49-40,48s17.909,48,40,48c8.056,0,15.54-2.883,21.818-7.799C336.748,207.833,320,186.958,320,161.333z"/>
<ellipse style="fill:#A07DD2;" cx="176" cy="169" rx="40" ry="48"/>
<path style="fill:#9169C8;" d="M160,161.333c0-16.843,7.244-31.635,18.182-40.201C177.455,121.085,176.737,121,176,121
	c-22.091,0-40,21.49-40,48s17.909,48,40,48c8.056,0,15.54-2.883,21.818-7.799C176.748,207.833,160,186.958,160,161.333z"/>
<g>
	<path style="fill:#2D2B29;" d="M424,240c0-28.552-18.415-52.165-42.113-55.563c1.371-5.2,2.113-10.719,2.113-16.437
		c0-21.832-10.771-40.773-26.433-50.005c2.488-9.307,3.754-18.922,3.754-28.651c0-5.811-0.541-11.846-1.652-18.451
		c-0.566-3.361-3.2-5.995-6.561-6.561c-6.605-1.112-12.641-1.652-18.452-1.652c-22.107,0-43.055,6.414-60.749,18.046
		c2.083-9.725,6.005-21.484,12.432-32.075C299.486,26.985,318.886,16,344,16c4.418,0,8-3.582,8-8s-3.582-8-8-8
		c-30.652,0-55.321,13.953-71.339,40.35c-7.72,12.721-12.114,26.069-14.429,37.047c-10.708-16.06-24.695-29.768-41.143-40.166
		C195.116,23.342,169.7,16,143.588,16c-7.224,0-14.737,0.673-22.968,2.059c-3.362,0.566-5.996,3.2-6.562,6.562
		C112.673,32.85,112,40.363,112,47.588c0,30.469,9.698,59.226,28.068,83.339C132.567,140.811,128,153.792,128,168
		c0,5.718,0.742,11.236,2.113,16.437C106.415,187.835,88,211.448,88,240c0,28.557,18.421,52.173,42.125,55.565
		C128.737,300.867,128,306.407,128,312c0,28.558,18.423,52.176,42.129,55.566c-1.391,5.307-2.129,10.853-2.129,16.452
		c0,28.555,18.418,52.17,42.121,55.565C208.736,444.879,208,450.413,208,456c0,30.879,21.533,56,48,56s48-25.121,48-56
		c0-5.587-0.736-11.121-2.121-16.417c23.702-3.395,42.121-27.01,42.121-55.565c0-5.599-0.739-11.145-2.129-16.452
		C365.577,364.176,384,340.559,384,312c0-5.593-0.738-11.133-2.125-16.435C405.58,292.173,424,268.557,424,240z M368,168
		c0,22.056-14.355,40-32,40s-32-17.944-32-40s14.355-40,32-40S368,145.944,368,168z M328,240.018c0,22.056-14.355,40-32,40
		s-32-17.944-32-40c0-6.127,1.14-12.144,3.292-17.598c11.917-3.366,22.109-11.926,28.708-23.511
		c6.599,11.585,16.792,20.145,28.708,23.511C326.86,227.875,328,233.891,328,240.018z M256,352c-17.645,0-32-17.944-32-40
		c0-6.112,1.135-12.113,3.277-17.558c11.923-3.363,22.121-11.925,28.723-23.516c6.602,11.59,16.8,20.152,28.723,23.515
		C286.865,299.887,288,305.888,288,312C288,334.056,273.645,352,256,352z M176,128c17.645,0,32,17.944,32,40s-14.355,40-32,40
		s-32-17.944-32-40S158.355,128,176,128z M187.292,222.42c11.917-3.366,22.109-11.926,28.708-23.511
		c6.599,11.585,16.792,20.145,28.708,23.511c2.152,5.455,3.292,11.471,3.292,17.598c0,22.056-14.355,40-32,40s-32-17.944-32-40
		C184,233.891,185.14,227.875,187.292,222.42z M256,128c17.645,0,32,17.944,32,40s-14.355,40-32,40s-32-17.944-32-40
		S238.355,128,256,128z M344.712,79.288c0.408,3.517,0.609,6.841,0.609,10.056c0,7.864-0.976,15.635-2.874,23.176
		c-2.11-0.332-4.26-0.52-6.448-0.52c-5.926,0-11.602,1.268-16.847,3.569c1.697-3.392,0.789-7.613-2.353-9.969
		c-3.534-2.652-8.549-1.935-11.2,1.6l-15.806,21.075c-7.31-8.465-16.938-14.197-27.658-15.801
		c17.854-21.376,44.066-33.795,72.52-33.795C337.871,78.679,341.196,78.879,344.712,79.288z M128.986,32.986
		c5.14-0.662,9.957-0.986,14.602-0.986c46.385,0,88.059,25.745,108.865,67.209c-4.334,4.832-8.286,10.091-11.801,15.744
		c-4.159,1.642-8.067,3.921-11.629,6.756l-47.366-47.366c-3.124-3.124-8.189-3.124-11.313,0c-3.125,3.124-3.125,8.189,0,11.313
		l47.871,47.871c-0.775,1.154-1.517,2.34-2.214,3.564C207.394,121.983,192.68,112,176,112c-8.866,0-17.171,2.83-24.306,7.739
		C136.188,98.743,128,73.892,128,47.588C128,42.943,128.324,38.125,128.986,32.986z M104,240c0-22.056,14.355-40,32-40
		c0.21,0,0.417-0.016,0.624-0.031c6.61,11.048,16.54,19.192,28.092,22.454C166.863,227.872,168,233.881,168,240
		c0,22.056-14.355,40-32,40S104,262.056,104,240z M144,312c0-6.119,1.137-12.128,3.285-17.578
		c11.917-3.364,22.11-11.921,28.71-23.504c6.602,11.594,16.802,20.16,28.728,23.524C206.865,299.887,208,305.888,208,312
		c0,22.056-14.355,40-32,40S144,334.056,144,312z M184,384.018c0-6.127,1.14-12.144,3.292-17.598
		c11.917-3.366,22.109-11.926,28.708-23.511c6.599,11.585,16.792,20.145,28.708,23.511c2.152,5.455,3.292,11.471,3.292,17.598
		c0,22.056-14.355,40-32,40S184,406.074,184,384.018z M256,496c-17.645,0-32-17.944-32-40c0-6.112,1.135-12.113,3.277-17.558
		c11.923-3.363,22.121-11.925,28.723-23.516c6.602,11.59,16.8,20.152,28.723,23.515C286.865,443.887,288,449.888,288,456
		C288,478.056,273.645,496,256,496z M296,424.018c-17.645,0-32-17.944-32-40c0-6.127,1.14-12.144,3.292-17.598
		c11.917-3.366,22.109-11.926,28.708-23.511c6.599,11.585,16.792,20.145,28.708,23.511c2.152,5.455,3.292,11.471,3.292,17.598
		C328,406.074,313.645,424.018,296,424.018z M336,352c-17.645,0-32-17.944-32-40c0-6.112,1.135-12.113,3.277-17.558
		c11.926-3.364,22.126-11.93,28.728-23.524c6.601,11.583,16.794,20.14,28.71,23.504C366.862,299.872,368,305.88,368,312
		C368,334.056,353.645,352,336,352z M376,280c-17.645,0-32-17.944-32-40c0-6.119,1.137-12.128,3.285-17.578
		c11.552-3.261,21.481-11.406,28.092-22.454C375.583,199.984,375.79,200,376,200c17.645,0,32,17.944,32,40S393.645,280,376,280z"/>
	<path style="fill:#2D2B29;" d="M256,152c3.262,0,8,6.233,8,16c0,4.418,3.582,8,8,8s8-3.582,8-8c0-17.944-10.542-32-24-32
		c-4.418,0-8,3.582-8,8S251.582,152,256,152z"/>
	<path style="fill:#2D2B29;" d="M336,136c-4.418,0-8,3.582-8,8s3.582,8,8,8c3.262,0,8,6.233,8,16c0,4.418,3.582,8,8,8s8-3.582,8-8
		C360,150.056,349.458,136,336,136z"/>
	<path style="fill:#2D2B29;" d="M176,152c3.262,0,8,6.233,8,16c0,4.418,3.582,8,8,8s8-3.582,8-8c0-17.944-10.542-32-24-32
		c-4.418,0-8,3.582-8,8S171.582,152,176,152z"/>
	<path style="fill:#2D2B29;" d="M397.659,226.34c-1.49-1.49-3.55-2.34-5.66-2.34s-4.17,0.85-5.66,2.34
		c-1.49,1.49-2.34,3.55-2.34,5.66s0.85,4.17,2.34,5.66s3.55,2.34,5.66,2.34s4.17-0.85,5.66-2.34c1.49-1.49,2.34-3.55,2.34-5.66
		C400,229.89,399.149,227.83,397.659,226.34z"/>
	<path style="fill:#2D2B29;" d="M306.339,237.66c1.49,1.49,3.55,2.34,5.66,2.34s4.17-0.85,5.66-2.34c1.49-1.49,2.34-3.55,2.34-5.66
		s-0.85-4.17-2.34-5.66s-3.55-2.34-5.66-2.34s-4.17,0.85-5.66,2.34c-1.49,1.49-2.34,3.55-2.34,5.66
		C304,234.11,304.85,236.17,306.339,237.66z"/>
	<path style="fill:#2D2B29;" d="M232,240c2.11,0,4.17-0.85,5.66-2.34c1.49-1.49,2.34-3.55,2.34-5.66s-0.85-4.17-2.34-5.66
		c-1.49-1.49-3.55-2.34-5.66-2.34s-4.17,0.85-5.66,2.34c-1.49,1.49-2.34,3.55-2.34,5.66s0.85,4.17,2.34,5.66
		C227.83,239.15,229.89,240,232,240z"/>
	<path style="fill:#2D2B29;" d="M232,384c2.11,0,4.17-0.85,5.66-2.34S240,378.1,240,376c0-2.11-0.85-4.17-2.34-5.66
		c-1.49-1.49-3.55-2.34-5.66-2.34s-4.17,0.85-5.66,2.34S224,373.89,224,376c0,2.1,0.85,4.17,2.34,5.66
		C227.83,383.15,229.89,384,232,384z"/>
	<path style="fill:#2D2B29;" d="M317.659,370.34c-1.49-1.49-3.55-2.34-5.66-2.34s-4.17,0.85-5.66,2.34s-2.34,3.55-2.34,5.66
		c0,2.1,0.85,4.17,2.34,5.66s3.55,2.34,5.66,2.34s4.17-0.85,5.66-2.34s2.34-3.56,2.34-5.66
		C320,373.89,319.149,371.83,317.659,370.34z"/>
	<path style="fill:#2D2B29;" d="M277.659,442.34c-1.49-1.49-3.55-2.34-5.66-2.34c-2.1,0-4.17,0.85-5.66,2.34s-2.34,3.55-2.34,5.66
		c0,2.1,0.85,4.17,2.34,5.66s3.55,2.34,5.66,2.34s4.17-0.85,5.66-2.34s2.34-3.55,2.34-5.66
		C280,445.89,279.149,443.83,277.659,442.34z"/>
	<path style="fill:#2D2B29;" d="M357.659,298.34c-1.49-1.49-3.55-2.34-5.66-2.34s-4.17,0.85-5.66,2.34s-2.34,3.55-2.34,5.66
		c0,2.11,0.85,4.17,2.34,5.66s3.56,2.34,5.66,2.34c2.11,0,4.17-0.85,5.66-2.34s2.34-3.56,2.34-5.66
		C360,301.89,359.149,299.83,357.659,298.34z"/>
	<path style="fill:#2D2B29;" d="M280,304c0-2.1-0.85-4.17-2.34-5.66S274.11,296,272,296s-4.17,0.85-5.66,2.34S264,301.89,264,304
		c0,2.11,0.85,4.17,2.34,5.66S269.9,312,272,312c2.11,0,4.17-0.85,5.66-2.34C279.149,308.17,280,306.1,280,304z"/>
	<path style="fill:#2D2B29;" d="M192,312c2.11,0,4.17-0.85,5.66-2.34S200,306.1,200,304s-0.85-4.17-2.34-5.66
		c-1.49-1.49-3.55-2.34-5.66-2.34s-4.17,0.85-5.66,2.34S184,301.89,184,304c0,2.1,0.85,4.17,2.34,5.66
		C187.83,311.15,189.899,312,192,312z"/>
	<path style="fill:#2D2B29;" d="M152,240c2.11,0,4.17-0.85,5.66-2.34c1.49-1.49,2.34-3.55,2.34-5.66s-0.85-4.17-2.34-5.66
		c-1.49-1.49-3.55-2.34-5.66-2.34s-4.17,0.85-5.66,2.34c-1.49,1.49-2.34,3.55-2.34,5.66s0.85,4.17,2.34,5.66
		C147.83,239.15,149.89,240,152,240z"/>
</g>
<g>
</g>
<g>
</g>
<g>
</g>
<g>
</g>
<g>
</g>
<g>
</g>
<g>
</g>
<g>
</g>
<g>
</g>
<g>
</g>
<g>
</g>
<g>
</g>
<g>
</g>
<g>
</g>
<g>
</g>
</svg>
